<?xml version="1.0" standalone="no"?>
<!DOCTYPE svg PUBLIC "-//W3C//DTD SVG 20010904//EN"
 "http://www.w3.org/TR/2001/REC-SVG-20010904/DTD/svg10.dtd">
<svg version="1.0" xmlns="http://www.w3.org/2000/svg"
 width="1094.000000pt" height="1094.000000pt" viewBox="0 0 1094.000000 1094.000000"
 preserveAspectRatio="xMidYMid meet">
<metadata>
Created by potrace 1.16, written by Peter Selinger 2001-2019
</metadata>
<g transform="translate(0.000000,1094.000000) scale(0.100000,-0.100000)"
fill="#000000" stroke="none">
<path d="M3225 9363 c-13 -13 -16 -28 -12 -67 24 -222 30 -516 18 -1021 -6
-291 -11 -689 -11 -883 0 -194 -4 -351 -8 -348 -13 8 -59 -20 -162 -98 -52
-41 -134 -97 -182 -125 -83 -49 -98 -64 -98 -100 0 -24 31 -51 59 -51 48 0
178 90 321 223 l75 69 12 -112 c18 -159 77 -342 131 -402 19 -22 55 -23 73 -2
10 13 8 24 -14 67 -14 29 -33 90 -41 136 -35 183 -40 350 -41 1401 -1 943 -2
1042 -18 1115 -10 44 -22 105 -27 135 -9 49 -29 80 -51 80 -4 0 -15 -8 -24
-17z"/>
<path d="M3018 8743 c-9 -10 -52 -115 -96 -233 -45 -118 -139 -366 -210 -550
-166 -430 -242 -647 -450 -1290 -289 -892 -419 -1328 -547 -1834 -216 -856
-357 -1621 -372 -2022 -7 -183 -3 -204 36 -204 18 0 31 6 35 16 4 9 11 74 16
143 13 168 33 303 81 561 217 1161 537 2308 1145 4105 349 1032 424 1259 424
1286 0 24 -15 39 -39 39 -4 0 -15 -8 -23 -17z"/>
<path d="M5145 8664 c-18 -19 -41 -50 -51 -69 -18 -34 -18 -35 3 -57 l22 -23
-34 -120 c-97 -338 -209 -950 -241 -1307 l-5 -67 -57 -12 c-74 -15 -155 1
-178 36 -14 22 -14 29 0 73 26 76 79 158 167 254 89 97 100 130 45 136 -27 3
-44 -11 -155 -125 -71 -71 -138 -150 -153 -179 -61 -113 -57 -200 13 -266 64
-61 139 -69 299 -32 24 5 27 2 39 -48 15 -58 53 -103 95 -114 117 -29 238 274
240 601 1 109 -2 135 -17 158 -18 28 -32 33 -57 17 -12 -7 -14 -29 -12 -108 2
-54 -2 -136 -8 -183 -14 -99 -55 -232 -82 -262 -19 -22 -19 -21 -14 88 17 317
102 818 227 1333 27 112 49 218 49 235 0 82 -76 106 -135 41z"/>
<path d="M6622 8228 c-5 -7 -10 -30 -10 -50 0 -82 -94 -248 -692 -1228 -432
-708 -466 -764 -755 -1260 -540 -925 -787 -1311 -1364 -2130 -404 -573 -491
-705 -491 -743 0 -62 54 -86 103 -46 15 11 86 104 160 207 73 103 203 284 288
402 533 739 827 1199 1234 1930 226 406 405 712 872 1492 430 719 565 951 643
1113 87 180 107 255 80 306 -12 21 -52 26 -68 7z"/>
<path d="M5340 7444 c-19 -22 4 -254 31 -309 22 -46 71 -83 121 -92 66 -10
188 63 188 113 0 44 -24 48 -86 15 -31 -17 -64 -31 -74 -31 -32 0 -52 39 -80
162 -16 67 -32 131 -35 141 -9 21 -48 22 -65 1z"/>
<path d="M3783 7201 c-51 -32 -135 -154 -158 -231 -4 -14 -13 -32 -19 -40 -16
-19 -93 -253 -102 -306 -5 -35 -3 -45 15 -63 48 -48 86 -20 112 84 74 294 156
475 215 475 41 0 81 -111 105 -289 6 -47 17 -97 25 -112 32 -62 92 -76 143
-33 42 35 104 163 105 217 1 40 0 42 -29 42 -30 0 -41 -12 -89 -96 l-19 -34
-8 30 c-4 17 -15 62 -23 100 -16 67 -70 192 -98 225 -44 52 -118 65 -175 31z"/>
<path d="M9225 5807 c-15 -18 -43 -70 -63 -115 l-37 -83 -70 -2 c-55 -2 -83
-8 -129 -31 -147 -72 -348 -326 -400 -505 -24 -83 -21 -197 7 -246 25 -46 92
-85 144 -85 18 0 33 -3 33 -6 0 -11 -250 -474 -413 -764 -195 -346 -375 -653
-839 -1425 -462 -768 -566 -931 -738 -1153 -67 -87 -73 -92 -89 -78 -40 36
-72 8 -92 -80 -10 -46 -10 -56 5 -79 44 -67 107 -52 212 48 119 112 274 324
491 672 366 587 1228 2105 1549 2731 99 192 137 255 185 310 117 132 210 287
282 470 74 184 103 389 63 433 -29 32 -70 27 -101 -12z m-213 -344 c-17 -21
-60 -67 -97 -103 -37 -36 -73 -78 -82 -94 -14 -26 -13 -30 5 -48 24 -24 46
-15 105 40 20 20 37 31 37 25 0 -6 -40 -94 -89 -196 -80 -164 -94 -186 -124
-201 -39 -18 -84 -21 -107 -6 -26 16 -18 123 17 212 58 148 213 341 313 390
51 26 55 22 22 -19z"/>
<path d="M6219 5611 c-158 -99 -450 -549 -544 -834 -22 -68 -40 -106 -56 -118
-29 -23 -36 -23 -55 -4 -21 21 -31 19 -59 -10 -31 -30 -34 -93 -7 -118 25 -22
67 -31 101 -19 28 10 29 9 34 -24 8 -51 42 -90 93 -110 39 -15 52 -15 102 -4
122 26 378 180 545 325 75 65 88 81 85 103 -5 48 -45 41 -137 -25 -121 -87
-428 -248 -513 -268 l-28 -7 0 57 0 57 103 102 c206 201 357 440 446 702 38
112 40 172 8 202 -31 30 -64 28 -118 -7z m5 -188 c-40 -101 -90 -198 -149
-288 -60 -92 -195 -259 -203 -251 -8 8 96 217 168 337 94 156 201 301 208 281
2 -6 -9 -41 -24 -79z"/>
<path d="M7085 5366 c-9 -13 -29 -74 -45 -135 -19 -70 -48 -148 -80 -209 -49
-97 -139 -218 -183 -247 -33 -21 -113 -31 -132 -15 -22 18 -19 110 5 206 22
83 20 118 -5 128 -38 14 -67 -28 -112 -159 -47 -140 -41 -218 22 -274 62 -54
147 -62 240 -22 47 21 90 67 156 169 l48 73 6 -38 c20 -125 45 -184 99 -231
62 -54 135 -53 171 2 30 45 -8 91 -54 67 -15 -8 -23 -7 -35 4 -48 49 -48 229
0 602 5 40 3 58 -10 78 -22 34 -69 34 -91 1z"/>
<path d="M7774 5360 c-36 -14 -114 -111 -178 -219 l-61 -104 -3 60 c-2 44 -8
65 -22 78 -30 27 -68 12 -87 -33 -29 -70 -65 -237 -67 -310 -1 -69 1 -75 27
-98 63 -54 107 -16 211 183 78 149 161 283 175 283 9 0 6 -20 -34 -205 -14
-66 -28 -161 -32 -210 -5 -79 -3 -97 15 -138 33 -75 101 -93 185 -51 18 10 27
22 27 38 0 34 -20 46 -64 39 l-38 -6 7 54 c4 30 17 101 30 159 58 257 68 360
41 424 -24 57 -75 79 -132 56z"/>
</g>
</svg>
